<svg height="496pt" viewBox="0 0 496 496" width="496pt" xmlns="http://www.w3.org/2000/svg"><path d="m144 456v32h-48v-56c0-13.28125 10.71875-24 24-24 6.640625 0 12.640625 2.71875 16.960938 7.039062 4.320312 4.320313 7.039062 10.320313 7.039062 16.960938zm0 0" fill="#838f9b"/><path d="m232 354.398438v85.601562c0 8.800781-7.199219 16-16 16h-72v-24c0-6.640625-2.71875-12.640625-7.039062-16.960938-4.320313-4.320312-10.320313-7.039062-16.960938-7.039062-13.28125 0-24 10.71875-24 24v24h-72c-8.800781 0-16-7.199219-16-16v-144c0-8.800781 7.199219-16 16-16h192c8.800781 0 16 7.199219 16 16zm0 0" fill="#aab2bd"/><path d="m392 376 8.800781-44.078125 50 11.519531c21.757813 5.039063 37.199219 24.398438 37.199219 46.71875v97.839844h-112l-8-96 8.398438-25.199219.082031-.082031zm0 0" fill="#ffeaa7"/><path d="m272 488h-56v-32c8.800781 0 16-7.199219 16-16v-85.601562c5.921875-5.277344 13.121094-9.117188 21.199219-10.957032l51.359375-11.839844 7.441406 44.398438 15.519531-9.359375 8.480469 25.359375-8 96zm0 0" fill="#ffeaa7"/><path d="m368 392 8 96h-48l8-96zm0 0" fill="#ef7385"/><path d="m352 352 24.480469 14.71875-.082031.082031-8.398438 25.199219h-32l-8.480469-25.359375zm0 0" fill="#ed5565"/><path d="m384 328 16.800781 3.921875-8.800781 44.078125-15.519531-9.28125-24.480469-14.71875zm0 0" fill="#fcd770"/><path d="m352 352-24.480469 14.640625-15.519531 9.359375-7.441406-44.398438 15.441406-3.601562zm0 0" fill="#fcd770"/><path d="m337.359375 216h-49.359375c-9.601562 0-18.160156 4.238281-24 10.878906v-34.878906c0-48.640625 39.359375-88 88-88 24.320312 0 46.320312 9.839844 62.238281 25.761719 15.921875 15.917969 25.761719 37.917969 25.761719 62.238281v34.878906c-5.839844-6.640625-14.398438-10.878906-24-10.878906h-8v-16c-10.238281 10.238281-24.160156 16-38.640625 16zm0 0" fill="#b27946"/><g fill="#f0d0b4"><path d="m320 328v-24l.71875-1.519531c23.601562 9.121093 27.441406 9.519531 31.28125 9.519531 11.601562 0 22.398438-3.519531 31.28125-9.519531l.71875 1.519531v24l-32 24zm0 0"/><path d="m440 226.878906c4.960938 5.679688 8 13.042969 8 21.121094 0 17.679688-14.320312 32-32 32h-13.441406c3.519531-7.28125 5.441406-15.359375 5.441406-24v-40h8c9.601562 0 18.160156 4.238281 24 10.878906zm0 0"/><path d="m301.441406 280c-3.519531-7.28125-5.441406-15.359375-5.441406-24v-40h73.359375c14.480469 0 28.402344-5.761719 38.640625-16v56c0 8.640625-1.921875 16.71875-5.441406 24-4.238282 9.121094-10.957032 16.878906-19.277344 22.480469-8.882812 6-19.679688 9.519531-31.28125 9.519531-3.839844 0-7.679688-.398438-31.28125-9.519531-3.039062-2.082031-5.757812-4.320313-8.320312-6.878907-4.476563-4.480468-8.238282-9.761718-10.957032-15.601562zm0 0"/><path d="m296 216v40c0 8.640625 1.921875 16.71875 5.441406 24h-13.441406c-17.679688 0-32-14.320312-32-32 0-8.078125 3.039062-15.441406 8-21.121094 5.839844-6.640625 14.398438-10.878906 24-10.878906zm0 0"/></g><path d="m248 128c0 66.238281-53.761719 120-120 120s-120-53.761719-120-120 53.761719-120 120-120 120 53.761719 120 120zm0 0" fill="#e6e9ed"/><path d="m144 116.878906v19.121094l37.039062 12.320312c6.5625 2.238282 10.960938 8.320313 10.960938 15.199219v36.480469h-128v-36.480469c0-6.878906 4.398438-12.960937 10.960938-15.199219l37.039062-12.320312v-19.121094l.558594-.878906c4.5625 2.558594 9.839844 4 15.441406 4s10.878906-1.441406 15.441406-4zm0 0" fill="#b4dd7f"/><path d="m160 72v16c0 12.078125-6.640625 22.558594-16.558594 28-4.5625 2.558594-9.839844 4-15.441406 4s-10.878906-1.441406-15.441406-4c-9.917969-5.441406-16.558594-15.921875-16.558594-28v-16c0-17.679688 14.320312-32 32-32 8.800781 0 16.800781 3.601562 22.640625 9.359375 5.757813 5.839844 9.359375 13.839844 9.359375 22.640625zm0 0" fill="#f0d0b4"/><path d="m452.59375 335.617188-60.59375-13.984376v-15.753906c6.160156-4.941406 11.351562-11.015625 15.34375-17.878906h8.65625c22.054688 0 40-17.945312 40-40 0-8.929688-3.039062-17.089844-8-23.753906v-32.246094c0-52.9375-43.0625-96-96-96s-96 43.0625-96 96v32.246094c-4.960938 6.664062-8 14.832031-8 23.753906 0 22.054688 17.945312 40 40 40h8.65625c3.984375 6.863281 9.183594 12.9375 15.34375 17.878906v15.753906l-60.59375 13.984376c-3.957031.910156-7.757812 2.335937-11.40625 4.070312v-43.6875c0-13.230469-10.769531-24-24-24h-192c-13.230469 0-24 10.769531-24 24v144c0 13.230469 10.769531 24 24 24h64v16h-16v16h424v-105.816406c0-26.230469-17.847656-48.671875-43.40625-54.566406zm-134.410156 1.015624 19.503906 14.625-19.71875 11.832032-4.242188-25.433594zm25.175781 63.367188h17.289063l6.664062 80h-30.617188zm18.871094-16h-20.46875l-4.59375-13.777344 14.832031-8.894531 14.824219 8.894531zm4.089843-32.742188 19.503907-14.625 5.640625 1.304688-5.074219 25.359375zm49.679688-79.257812h-2.105469c1.328125-5.128906 2.105469-10.464844 2.105469-16v-32c13.230469 0 24 10.769531 24 24s-10.769531 24-24 24zm-64-160c44.113281 0 80 35.886719 80 80v19.390625c-4.910156-2.160156-10.304688-3.390625-16-3.390625v-16h-16v4.464844c-5.550781 4.832031-12.199219 8.269531-19.3125 10.0625.3125-.304688.65625-.566406.96875-.871094l-11.3125-11.3125c-5.96875 5.96875-13.527344 10.136719-21.65625 12.183594.3125-.304688.65625-.566406.96875-.871094l-11.3125-11.3125c-8.679688 8.679688-20.695312 13.65625-32.96875 13.65625h-1.375v-16h-16v16c-5.695312 0-11.089844 1.230469-16 3.390625v-19.390625c0-44.113281 35.886719-80 80-80zm-64 160c-13.230469 0-24-10.769531-24-24s10.769531-24 24-24v32c0 5.535156.777344 10.871094 2.105469 16zm16-16v-32h1.375c7.769531 0 15.441406-1.535156 22.625-4.328125v4.328125h9.375c7.769531 0 15.441406-1.535156 22.625-4.328125v4.328125h9.375c10.746094 0 21.320312-2.886719 30.625-8.089844v40.089844c0 5.617188-1.023438 10.984375-2.800781 16h-45.199219v16h35.679688c-8.792969 9.792969-21.503907 16-35.679688 16-26.472656 0-48-21.527344-48-48zm48 64c8.488281 0 16.585938-1.695312 24-4.710938v8.710938l-24 18-24-18v-8.710938c7.414062 3.015626 15.511719 4.710938 24 4.710938zm-97 31.207031 43.105469-9.941406 7.933593 47.636719 17.082032-10.246094 4.773437 14.320312-7.253906 87.023438h-40.640625v-88h-16v88h-40v-17.472656c9.289062-3.3125 16-12.113282 16-22.527344v-81.734375c4.457031-3.34375 9.550781-5.800781 15-7.058594zm-103 112.792969h56v16h-56zm-128-16c-4.414062 0-8-3.585938-8-8v-144c0-4.414062 3.585938-8 8-8h192c4.414062 0 8 3.585938 8 8v144c0 4.414062-3.585938 8-8 8h-64v-16c0-17.648438-14.351562-32-32-32s-32 14.351562-32 32v16zm80-16c0-8.824219 7.175781-16 16-16s16 7.175781 16 16v48h-32zm376 48h-40v-88h-16v88h-40.640625l-7.246094-87.023438 4.765625-14.320312 16.738282 10.046875 9.429687-47.167969 41.953125 9.679688c18.246094 4.210937 31 20.234375 31 38.96875zm0 0"/><path d="m200 163.527344c0-10.34375-6.59375-19.496094-16.40625-22.765625l-31.59375-10.53125v-10.4375c9.65625-7.3125 16-18.785157 16-31.792969v-16c0-22.054688-17.945312-40-40-40s-40 17.945312-40 40v16c0 13.015625 6.34375 24.488281 16 31.792969v10.4375l-31.59375 10.53125c-9.8125 3.277343-16.40625 12.421875-16.40625 22.765625v44.472656h144zm-96-91.527344c0-13.230469 10.769531-24 24-24s24 10.769531 24 24v16c0 13.230469-10.769531 24-24 24s-24-10.769531-24-24zm80 120h-112v-28.472656c0-3.449219 2.191406-6.496094 5.472656-7.589844l42.527344-14.167969v-14.578125c2.585938.527344 5.265625.808594 8 .808594s5.414062-.28125 8-.808594v14.578125l42.527344 14.167969c3.28125 1.09375 5.472656 4.152344 5.472656 7.589844zm0 0"/><path d="m128 256c70.574219 0 128-57.425781 128-128s-57.425781-128-128-128-128 57.425781-128 128 57.425781 128 128 128zm0-240c61.761719 0 112 50.238281 112 112s-50.238281 112-112 112-112-50.238281-112-112 50.238281-112 112-112zm0 0"/><path d="m296 48h16v16h-16zm0 0"/><path d="m344 48h16v16h-16zm0 0"/><path d="m392 48h16v16h-16zm0 0"/></svg>